# xmcd
#
# Track frame offsets:
#	182
#	15892
#	26882
#	36475
#	41230
#	52700
#	66352
#	81747
#	98707
#	110077
#	125255
#	140935
#	153885
#	167040
#	187005
#	202462
#
# Disc length: 2933 seconds
#
# Revision: 5
# Processed by: cddbd v1.5.2PL0 Copyright (c) Steve Scherf et al.
# Submitted via: audiograbber 1.83.01
#
DISCID=ee0b7310
DTITLE=Various Artist - Soul Hits -  Volume 3
DYEAR=2000
DGENRE=Soul
TTITLE0=Johnny Wakelin - Black Superman (Muhammed Ali)
TTITLE1=Brook Benton - A Rockin' Good Way
TTITLE2=The American Breed - Bend Me, Shape Me
TTITLE3=James Brown - Hot Pants
TTITLE4=Martha Reeves and The Vandellas - Heatwave
TTITLE5=George McCrae - I Can't Leave You Alone
TTITLE6=Ben E. King - Supernatural Thing (Part 1)
TTITLE7=Gladys Knight and The Pips - Best Thing That Ever Happened To Me
TTITLE8=Robert Knight - Love On A Mountain Top
TTITLE9=Nino Tempo and April Stevens - Love Will Keep Us Together
TTITLE10=Liz Lands - Like A Raging Fire
TTITLE11=Gallery - I Belive In Music
TTITLE12=Jackie Wilson - I Get The Sweetest Feeling
TTITLE13=Jean, Scherrie and Linda Of The Supremes - Stoned Love
TTITLE14=Dobie Gray - Feelings
TTITLE15=Bobby Womack - Harry Hippy
EXTD=
EXTT0=
EXTT1=
EXTT2=
EXTT3=
EXTT4=
EXTT5=
EXTT6=
EXTT7=
EXTT8=
EXTT9=
EXTT10=
EXTT11=
EXTT12=
EXTT13=
EXTT14=
EXTT15=
PLAYORDER=
